<svg xmlns="http://www.w3.org/2000/svg" width="800" height="600">
<style>
path { fill: none; stroke: black; stroke-width: 1; }
text { font-size: 20; }
</style>
<path d="
M20,580L777.031,580M20,509.999L20,148.045M20,580L20,584M210,580L210,584M400,580L400,584M590,580L590,584M20,440L16,440M20,300L16,300M20,160L16,160
M20,440L22.9688,437.813L25.9375,435.628L28.9062,433.447L31.875,431.273L34.8438,429.107L37.8125,426.952L40.7812,424.809L43.75,422.682L46.7188,420.571L49.6875,418.479L52.6562,416.409L55.625,414.361L58.5938,412.338L61.5625,410.343L64.5312,408.376L67.5,406.44L70.4688,404.537L73.4375,402.669L76.4062,400.837L79.375,399.043L82.3438,397.289L85.3125,395.578L88.2812,393.909L91.25,392.285L94.2188,390.708L97.1875,389.179L100.156,387.7L103.125,386.272L106.094,384.896L109.062,383.574L112.031,382.308L115,381.097L117.969,379.944L120.938,378.85L123.906,377.815L126.875,376.841L129.844,375.929L132.812,375.079L135.781,374.293L138.75,373.571L141.719,372.914L144.688,372.322L147.656,371.797L150.625,371.337L153.594,370.946L156.562,370.621L159.531,370.364L162.5,370.175L165.469,370.055L168.438,370.002L171.406,370.018L174.375,370.103L177.344,370.255L180.312,370.476L183.281,370.765L186.25,371.121L189.219,371.544L192.188,372.035L195.156,372.591L198.125,373.214L201.094,373.902L204.062,374.654L207.031,375.47L210,376.349L212.969,377.29L215.938,378.293L218.906,379.356L221.875,380.478L224.844,381.658L227.812,382.895L230.781,384.188L233.75,385.535L236.719,386.935L239.688,388.388L242.656,389.89L245.625,391.442L248.594,393.041L251.562,394.686L254.531,396.375L257.5,398.107L260.469,399.88L263.438,401.691L266.406,403.541L269.375,405.426L272.344,407.344L275.312,409.295L278.281,411.275L281.25,413.284L284.219,415.318L287.188,417.377L290.156,419.458L293.125,421.559L296.094,423.678L299.062,425.812L302.031,427.961L305,430.122L307.969,432.292L310.938,434.469L313.906,436.652L316.875,438.839L319.844,441.026L322.812,443.212L325.781,445.396L328.75,447.574L331.719,449.744L334.688,451.905L337.656,454.055L340.625,456.191L343.594,458.31L346.562,460.413L349.531,462.495L352.5,464.555L355.469,466.591L358.438,468.601L361.406,470.583L364.375,472.536L367.344,474.457L370.312,476.344L373.281,478.195L376.25,480.009L379.219,481.784L382.188,483.519L385.156,485.211L388.125,486.858L391.094,488.46L394.062,490.015L397.031,491.521L400,492.976L402.969,494.38L405.938,495.731L408.906,497.027L411.875,498.267L414.844,499.451L417.812,500.577L420.781,501.643L423.75,502.649L426.719,503.594L429.688,504.477L432.656,505.297L435.625,506.054L438.594,506.745L441.562,507.372L444.531,507.933L447.5,508.427L450.469,508.855L453.438,509.215L456.406,509.508L459.375,509.733L462.344,509.89L465.312,509.978L468.281,509.999L471.25,509.95L474.219,509.834L477.188,509.65L480.156,509.397L483.125,509.077L486.094,508.689L489.062,508.234L492.031,507.712L495,507.125L497.969,506.472L500.938,505.753L503.906,504.971L506.875,504.125L509.844,503.217L512.812,502.247L515.781,501.216L518.75,500.125L521.719,498.976L524.688,497.769L527.656,496.506L530.625,495.187L533.594,493.815L536.562,492.39L539.531,490.914L542.5,489.388L545.469,487.814L548.438,486.193L551.406,484.527L554.375,482.818L557.344,481.067L560.312,479.275L563.281,477.446L566.25,475.58L569.219,473.679L572.188,471.745L575.156,469.78L578.125,467.786L581.094,465.765L584.062,463.719L587.031,461.65L590,459.559L592.969,457.45L595.938,455.323L598.906,453.181L601.875,451.027L604.844,448.862L607.812,446.688L610.781,444.507L613.75,442.323L616.719,440.135L619.688,437.948L622.656,435.763L625.625,433.582L628.594,431.407L631.562,429.241L634.531,427.085L637.5,424.942L640.469,422.813L643.438,420.701L646.406,418.608L649.375,416.536L652.344,414.487L655.312,412.463L658.281,410.465L661.25,408.497L664.219,406.559L667.188,404.654L670.156,402.783L673.125,400.949L676.094,399.153L679.062,397.397L682.031,395.682L685,394.011L687.969,392.384L690.938,390.805L693.906,389.273L696.875,387.79L699.844,386.359L702.812,384.98L705.781,383.655L708.75,382.384L711.719,381.17L714.688,380.014L717.656,378.916L720.625,377.877L723.594,376.9L726.562,375.984L729.531,375.13L732.5,374.34L735.469,373.614L738.438,372.953L741.406,372.357L744.375,371.827L747.344,371.364L750.312,370.968L753.281,370.639L756.25,370.378L759.219,370.185L762.188,370.06L765.156,370.004L768.125,370.015L771.094,370.096L774.062,370.244L777.031,370.461
M20,230L22.9688,217.227L25.9375,205.334L28.9062,194.573L31.875,185.18L34.8438,177.366L37.8125,171.311L40.7812,167.164L43.75,165.035L46.7188,164.99L49.6875,167.055L52.6562,171.211L55.625,177.393L58.5938,185.491L61.5625,195.357L64.5312,206.8L67.5,219.596L70.4688,233.488L73.4375,248.197L76.4062,263.421L79.375,278.849L82.3438,294.161L85.3125,309.039L88.2812,323.173L91.25,336.267L94.2188,348.046L97.1875,358.264L100.156,366.705L103.125,373.191L106.094,377.586L109.062,379.796L112.031,379.775L115,377.521L117.969,373.081L120.938,366.545L123.906,358.047L126.875,347.761L129.844,335.895L132.812,322.689L135.781,308.407L138.75,293.333L141.719,277.763L144.688,261.998L147.656,246.339L150.625,231.08L153.594,216.498L156.562,202.853L159.531,190.377L162.5,179.271L165.469,169.704L168.438,161.805L171.406,155.662L174.375,151.325L177.344,148.799L180.312,148.049L183.281,149.001L186.25,151.544L189.219,155.535L192.188,160.801L195.156,167.146L198.125,174.354L201.094,182.198L204.062,190.446L207.031,198.862L210,207.219L212.969,215.3L215.938,222.908L218.906,229.864L221.875,236.021L224.844,241.258L227.812,245.49L230.781,248.665L233.75,250.771L236.719,251.828L239.688,251.894L242.656,251.059L245.625,249.446L248.594,247.202L251.562,244.499L254.531,241.526L257.5,238.485L260.469,235.585L263.438,233.036L266.406,231.041L269.375,229.795L272.344,229.474L275.312,230.231L278.281,232.197L281.25,235.467L284.219,240.106L287.188,246.14L290.156,253.557L293.125,262.31L296.094,272.309L299.062,283.432L302.031,295.519L305,308.381L307.969,321.801L310.938,335.541L313.906,349.347L316.875,362.951L319.844,376.084L322.812,388.476L325.781,399.869L328.75,410.016L331.719,418.693L334.688,425.703L337.656,430.879L340.625,434.091L343.594,435.249L346.562,434.304L349.531,431.253L352.5,426.136L355.469,419.039L358.438,410.091L361.406,399.459L364.375,387.352L367.344,374.008L370.312,359.697L373.281,344.708L376.25,329.348L379.219,313.935L382.188,298.787L385.156,284.221L388.125,270.539L391.094,258.029L394.062,246.953L397.031,237.544L400,230L402.969,224.481L405.938,221.101L408.906,219.935L411.875,221.006L414.844,224.294L417.812,229.731L420.781,237.206L423.75,246.567L426.719,257.622L429.688,270.148L432.656,283.893L435.625,298.583L438.594,313.927L441.562,329.626L444.531,345.378L447.5,360.885L450.469,375.86L453.438,390.033L456.406,403.158L459.375,415.014L462.344,425.417L465.312,434.215L468.281,441.299L471.25,446.598L474.219,450.084L477.188,451.77L480.156,451.711L483.125,449.996L486.094,446.754L489.062,442.142L492.031,436.345L495,429.567L497.969,422.032L500.938,413.969L503.906,405.614L506.875,397.198L509.844,388.944L512.812,381.061L515.781,373.739L518.75,367.14L521.719,361.402L524.688,356.628L527.656,352.888L530.625,350.214L533.594,348.605L536.562,348.022L539.531,348.392L542.5,349.609L545.469,351.538L548.438,354.02L551.406,356.874L554.375,359.905L557.344,362.905L560.312,365.667L563.281,367.981L566.25,369.648L569.219,370.481L572.188,370.314L575.156,369.004L578.125,366.436L581.094,362.53L584.062,357.238L587.031,350.551L590,342.499L592.969,333.149L595.938,322.605L598.906,311.008L601.875,298.533L604.844,285.38L607.812,271.779L610.781,257.975L613.75,244.231L616.719,230.814L619.688,217.995L622.656,206.04L625.625,195.202L628.594,185.718L631.562,177.8L634.531,171.632L637.5,167.364L640.469,165.106L643.438,164.931L646.406,166.866L649.375,170.894L652.344,176.953L655.312,184.937L658.281,194.698L661.25,206.05L664.219,218.769L667.188,232.601L670.156,247.268L673.125,262.469L676.094,277.894L679.062,293.222L682.031,308.136L685,322.325L687.969,335.491L690.938,347.36L693.906,357.681L696.875,366.237L699.844,372.849L702.812,377.376L705.781,379.724L708.75,379.841L711.719,377.725L714.688,373.418L717.656,367.008L720.625,358.627L723.594,348.446L726.562,336.671L729.531,323.541L732.5,309.317L735.469,294.284L738.438,278.736L741.406,262.974L744.375,247.301L747.344,232.008L750.312,217.377L753.281,203.666L756.25,191.111L759.219,179.916L762.188,170.249L765.156,162.244L768.125,155.991L771.094,151.541L774.062,148.903L777.031,148.045
"/>
<text x="20" text-anchor="middle" y="600">0</text><text x="210" text-anchor="middle" y="600">2</text><text x="400" text-anchor="middle" y="600">4</text><text x="590" text-anchor="middle" y="600">6</text>
<text text-anchor="end" x="16" y="450">-0</text><text text-anchor="end" x="16" y="310">2</text><text text-anchor="end" x="16" y="170">4</text>
</svg>
